<?xml version="1.0" standalone="no"?>
<!DOCTYPE svg PUBLIC "-//W3C//DTD SVG 20010904//EN"
 "http://www.w3.org/TR/2001/REC-SVG-20010904/DTD/svg10.dtd">
<svg version="1.0" xmlns="http://www.w3.org/2000/svg"
 width="70.000000pt" height="70.000000pt" viewBox="0 0 70.000000 70.000000"
 preserveAspectRatio="xMidYMid meet">
<metadata>
Created by potrace 1.14, written by Peter Selinger 2001-2017
</metadata>
<g transform="translate(0.000000,70.000000) scale(0.100000,-0.100000)"
fill="#000000" stroke="none">
<path d="M225 693 c-11 -3 -32 -14 -47 -25 -16 -11 -28 -17 -28 -14 0 5 -85
-79 -108 -108 -7 -9 -10 -16 -6 -16 3 0 0 -7 -7 -16 -19 -23 -22 -38 -25 -150
-2 -89 0 -108 21 -152 24 -52 101 -142 121 -142 7 0 15 -7 18 -16 3 -8 10 -12
16 -9 5 3 10 2 10 -3 0 -18 105 -39 185 -37 69 1 87 6 130 30 53 31 157 129
148 139 -4 3 -2 6 4 6 9 0 16 12 27 50 1 3 4 10 8 16 10 16 7 224 -3 224 -5 0
-8 3 -7 8 10 36 -136 202 -179 202 -7 0 -13 4 -13 8 0 9 -234 13 -265 5z"/>
</g>
</svg>
